<svg xmlns="http://www.w3.org/2000/svg" width="780" height="348" viewBox="0 0 780 348" role="img" aria-labelledby="title desc">
  <title id="title">Top Languages</title>
  <desc id="desc">Language distribution for public repositories owned by Overwatch886</desc>
  <defs>
    <linearGradient id="bg" x1="0" x2="0" y1="0" y2="1">
      <stop offset="0%" stop-color="#0D1117"/>
      <stop offset="100%" stop-color="#161B22"/>
    </linearGradient>
  </defs>
  <rect x="0.5" y="0.5" width="779" height="347" rx="12" fill="url(#bg)" stroke="#30363D"/>
  <text x="24" y="38" fill="#E6EDF3" font-family="-apple-system,Segoe UI,Helvetica,Arial,sans-serif" font-size="24" font-weight="700">Top Languages</text>
  <text x="24" y="62" fill="#8B949E" font-family="-apple-system,Segoe UI,Helvetica,Arial,sans-serif" font-size="14">User: Overwatch886 · Public repositories · Excluding forks</text>
  <text x="24" y="130" fill="#E6EDF3" font-family="-apple-system,Segoe UI,Helvetica,Arial,sans-serif" font-size="14">Python</text>
  <text x="215" y="130" text-anchor="end" fill="#8B949E" font-family="-apple-system,Segoe UI,Helvetica,Arial,sans-serif" font-size="13">44.83%</text>
  <rect x="250" y="116" width="480" height="12" rx="6" fill="#21262D"/>
  <rect x="250" y="116" width="215.17" height="12" rx="6" fill="#58A6FF"/>
  <text x="24" y="164" fill="#E6EDF3" font-family="-apple-system,Segoe UI,Helvetica,Arial,sans-serif" font-size="14">Java</text>
  <text x="215" y="164" text-anchor="end" fill="#8B949E" font-family="-apple-system,Segoe UI,Helvetica,Arial,sans-serif" font-size="13">19.83%</text>
  <rect x="250" y="150" width="480" height="12" rx="6" fill="#21262D"/>
  <rect x="250" y="150" width="95.17" height="12" rx="6" fill="#F1E05A"/>
  <text x="24" y="198" fill="#E6EDF3" font-family="-apple-system,Segoe UI,Helvetica,Arial,sans-serif" font-size="14">JavaScript</text>
  <text x="215" y="198" text-anchor="end" fill="#8B949E" font-family="-apple-system,Segoe UI,Helvetica,Arial,sans-serif" font-size="13">12.93%</text>
  <rect x="250" y="184" width="480" height="12" rx="6" fill="#21262D"/>
  <rect x="250" y="184" width="62.07" height="12" rx="6" fill="#3572A5"/>
  <text x="24" y="232" fill="#E6EDF3" font-family="-apple-system,Segoe UI,Helvetica,Arial,sans-serif" font-size="14">Jupyter Notebook</text>
  <text x="215" y="232" text-anchor="end" fill="#8B949E" font-family="-apple-system,Segoe UI,Helvetica,Arial,sans-serif" font-size="13">9.48%</text>
  <rect x="250" y="218" width="480" height="12" rx="6" fill="#21262D"/>
  <rect x="250" y="218" width="45.52" height="12" rx="6" fill="#E34C26"/>
  <text x="24" y="266" fill="#E6EDF3" font-family="-apple-system,Segoe UI,Helvetica,Arial,sans-serif" font-size="14">C++</text>
  <text x="215" y="266" text-anchor="end" fill="#8B949E" font-family="-apple-system,Segoe UI,Helvetica,Arial,sans-serif" font-size="13">7.76%</text>
  <rect x="250" y="252" width="480" height="12" rx="6" fill="#21262D"/>
  <rect x="250" y="252" width="37.24" height="12" rx="6" fill="#3178C6"/>
  <text x="24" y="300" fill="#E6EDF3" font-family="-apple-system,Segoe UI,Helvetica,Arial,sans-serif" font-size="14">MATLAB</text>
  <text x="215" y="300" text-anchor="end" fill="#8B949E" font-family="-apple-system,Segoe UI,Helvetica,Arial,sans-serif" font-size="13">5.17%</text>
  <rect x="250" y="286" width="480" height="12" rx="6" fill="#21262D"/>
  <rect x="250" y="286" width="24.83" height="12" rx="6" fill="#B07219"/>
  <text x="24" y="336" fill="#8B949E" font-family="-apple-system,Segoe UI,Helvetica,Arial,sans-serif" font-size="12">Auto-generated via GitHub Actions · Updated 2026-05-27 16:28 UTC</text>
</svg>
